<?xml version="1.0" encoding="utf-8"?>
<!-- Generator: Adobe Illustrator 16.0.0, SVG Export Plug-In . SVG Version: 6.00 Build 0)  -->
<!DOCTYPE svg PUBLIC "-//W3C//DTD SVG 1.1//EN" "http://www.w3.org/Graphics/SVG/1.1/DTD/svg11.dtd">
<svg version="1.1" id="Layer_1" xmlns="http://www.w3.org/2000/svg" xmlns:xlink="http://www.w3.org/1999/xlink" x="0px" y="0px"
	 width="200px" height="180px" viewBox="0 0 200 180" enable-background="new 0 0 200 180" xml:space="preserve">
<g>
	<g opacity="0.8">
		<g>
			<path d="M154.162,61.834c-10.4-20.822-31.918-35.164-56.732-35.164c-24.814,0-46.331,14.342-56.731,35.164H154.162z"/>
			<path d="M40.644,118.166c10.38,20.881,31.929,35.271,56.786,35.271c24.857,0,46.406-14.39,56.787-35.271H40.644z"/>
		</g>
		<g>
			<path d="M30.941,61.834h7.518C49.011,39.87,71.478,24.67,97.43,24.67c25.953,0,48.419,15.2,58.972,37.164h12.658
				c-2.068-1.512-2.6-4.191-1.059-6.847c2.037-3.513,0.383-6.38-3.678-6.372c-4.063,0.01-6.352-3.143-5.088-7.002
				s-0.953-6.319-4.924-5.467c-3.969,0.854-6.865-1.752-6.432-5.791c0.434-4.038-2.244-5.984-5.951-4.324s-7.08-0.287-7.494-4.328
				c-0.418-4.039-3.441-5.385-6.723-2.991c-3.279,2.394-6.984,1.19-8.23-2.675c-1.248-3.865-4.484-4.553-7.195-1.529
				c-2.713,3.023-6.586,2.617-8.607-0.904c-2.023-3.522-5.334-3.522-7.357,0c-2.023,3.521-5.896,3.928-8.607,0.904
				c-2.712-3.023-5.95-2.336-7.197,1.529c-1.246,3.865-4.95,5.068-8.231,2.675c-3.28-2.394-6.305-1.048-6.72,2.991
				c-0.417,4.041-3.789,5.988-7.496,4.328c-3.706-1.66-6.385,0.286-5.951,4.324c0.433,4.039-2.461,6.645-6.433,5.791
				c-3.97-0.853-6.186,1.607-4.922,5.467s-1.026,7.012-5.087,7.002c-4.062-0.008-5.717,2.859-3.679,6.372
				C33.541,57.643,33.008,60.322,30.941,61.834z"/>
			<path d="M169.061,118.166h-12.609c-10.531,22.021-33.027,37.271-59.021,37.271c-25.993,0-48.488-15.25-59.021-37.271h-7.469
				c2.067,1.512,2.6,4.191,1.059,6.847c-2.038,3.513-0.383,6.38,3.679,6.372c4.061-0.009,6.351,3.143,5.087,7.002
				s0.952,6.319,4.922,5.467c3.972-0.854,6.865,1.752,6.433,5.791c-0.434,4.038,2.245,5.984,5.951,4.324
				c3.707-1.66,7.079,0.287,7.496,4.328c0.415,4.039,3.439,5.385,6.72,2.991c3.281-2.394,6.985-1.19,8.231,2.675
				c1.247,3.865,4.485,4.553,7.197,1.529c2.711-3.023,6.584-2.617,8.607,0.904c2.022,3.522,5.333,3.522,7.357,0
				c2.021-3.521,5.895-3.928,8.607-0.904c2.711,3.023,5.947,2.336,7.195-1.529c1.246-3.865,4.951-5.068,8.23-2.675
				c3.281,2.394,6.305,1.048,6.723-2.991c0.414-4.041,3.787-5.988,7.494-4.328s6.385-0.286,5.951-4.324
				c-0.434-4.039,2.463-6.645,6.432-5.791c3.971,0.853,6.188-1.607,4.924-5.467s1.025-7.011,5.088-7.002
				c4.061,0.008,5.715-2.859,3.678-6.372C166.461,122.357,166.992,119.678,169.061,118.166z"/>
		</g>
	</g>
	<g>
		<text transform="matrix(1 0 0 1 75.9902 54.7417)" fill="#FFFFFF" font-family="'TitilliumWeb-Regular'" font-size="12">LAWYER</text>
	</g>
	<g>
		<text transform="matrix(1 0 0 1 86.5605 133.502)" fill="#FFFFFF" font-family="'TitilliumWeb-Regular'" font-size="12">2014</text>
	</g>
	<polygon opacity="0.8" points="193.5,63.16 100,63.16 6.5,63.16 28.092,90 6.5,116.84 100,116.84 193.5,116.84 171.908,90 	"/>
	<g>
		<path fill="#FFFFFF" d="M62.817,86.055c0,2.767-0.537,4.646-1.609,5.641c-1.072,0.996-3.263,1.493-6.57,1.493h-4.885v11.204
			h-2.851V75.607h7.735c3.308,0,5.498,0.502,6.57,1.503s1.609,2.884,1.609,5.65V86.055z M54.21,78.301h-4.458v12.232h4.458
			c2.339,0,3.841-0.258,4.506-0.775c0.666-0.518,0.999-1.484,0.999-2.908v-4.922c0-1.408-0.317-2.365-0.95-2.871
			C58.131,78.555,56.614,78.301,54.21,78.301z"/>
		<path fill="#FFFFFF" d="M107.467,104.393V75.607h2.85v12.387h1.473l9.207-12.387h3.18l-10.158,13.666l11.475,15.119h-3.586
			l-10.35-13.666h-1.24v13.666H107.467z"/>
		<path fill="#FFFFFF" d="M138.229,101.621v2.771h-12.869V75.607h12.869v2.791h-10.021v9.633h9.322v2.792h-9.322v10.798H138.229z"/>
		<path fill="#FFFFFF" d="M144.086,104.393V78.438h-6.166v-2.791h15.178v2.791h-6.164v25.955H144.086z"/>
		<path fill="#FFFFFF" d="M86.192,77.546c-1.176-1.524-3.075-2.287-5.699-2.287h-9.31c-2.636,0-4.538,0.763-5.709,2.287
			c-1.169,1.524-1.754,4.019-1.754,7.481v10.002c0,3.451,0.585,5.932,1.754,7.443c1.171,1.512,3.073,2.269,5.709,2.269h9.31
			c2.624,0,4.523-0.757,5.699-2.269c1.175-1.512,1.764-3.992,1.764-7.443V85.027C87.956,81.564,87.367,79.07,86.192,77.546z
			 M71.533,78.107h8.592c1.822,0,3.072,0.463,3.751,1.387c0.333,0.455,0.585,1.135,0.755,2.035l-8.792,5.342l-8.8-5.403
			c0.17-0.87,0.417-1.529,0.743-1.974C68.459,78.57,69.709,78.107,71.533,78.107z M83.875,100.544
			c-0.679,0.925-1.929,1.386-3.751,1.386h-8.592c-1.823,0-3.073-0.461-3.751-1.386c-0.68-0.925-1.018-2.763-1.018-5.515V84.162
			l9.074,5.678l9.055-5.603v10.792C84.893,97.781,84.553,99.619,83.875,100.544z"/>
		<g>
			<path fill="#FFFFFF" d="M105.322,94.68c0.012,0.189,0.021,0.4,0.029,0.637c0.006,0.234,0.01,0.572,0.01,1.015
				c0,2.786-0.539,4.845-1.615,6.174s-2.742,1.994-4.996,1.994h-2.717c-1.203,0-2.273-0.211-3.209-0.635
				c-0.938-0.425-1.66-1.028-2.166-1.815c-0.432-0.671-0.738-1.449-0.922-2.337c-0.184-0.886-0.275-2.247-0.275-4.083V94.66v-9.48
				c0-3.393,0.573-5.836,1.719-7.33c1.146-1.496,3.011-2.242,5.595-2.242h1.463c2.558,0,4.389,0.631,5.499,1.891
				c1.107,1.26,1.662,3.34,1.662,6.239c0,0.356-0.002,0.624-0.01,0.808c-0.006,0.184-0.016,0.352-0.027,0.504h-3.002v-0.342
				c0-2.443-0.305-4.105-0.912-4.987c-0.607-0.879-1.703-1.321-3.287-1.321h-1.52c-1.607,0-2.716,0.457-3.323,1.369
				c-0.608,0.912-0.912,2.717-0.912,5.412v9.48c0,3.166,0.275,5.138,0.826,5.916c0.552,0.779,1.688,1.17,3.409,1.17h1.52
				c1.697,0,2.822-0.377,3.373-1.131c0.551-0.753,0.826-2.504,0.826-5.252V94.66L105.322,94.68z"/>
		</g>
	</g>
</g>
</svg>
