<?xml version="1.0" encoding="utf-8"?>
<!-- Generator: Adobe Illustrator 16.0.0, SVG Export Plug-In . SVG Version: 6.00 Build 0)  -->
<!DOCTYPE svg PUBLIC "-//W3C//DTD SVG 1.1//EN" "http://www.w3.org/Graphics/SVG/1.1/DTD/svg11.dtd">
<svg version="1.1" id="Layer_1" xmlns="http://www.w3.org/2000/svg" xmlns:xlink="http://www.w3.org/1999/xlink" x="0px" y="0px"
	 width="320px" height="480px" viewBox="0 0 320 480" enable-background="new 0 0 320 480" xml:space="preserve">
<polygon fill="#131E2D" points="159.857,0 0.234,0 0.234,403.346 0.234,411.584 159.857,411.584 320,411.584 320,403.346 320,0 "/>
<rect x="125.798" y="411.584" fill="#131E2D" width="68.415" height="68.416"/>
<polygon fill="#19283F" points="125.798,480 194.213,411.584 194.213,411.584 125.798,411.584 "/>
<g>
	<g>
		<path fill="#E39855" d="M168.887,440.61c0,0.406-0.336,0.74-0.74,0.74h-16.282c-0.404,0-0.74-0.334-0.74-0.74v-1.48
			c0-0.404,0.336-0.738,0.74-0.738h16.282c0.404,0,0.74,0.334,0.74,0.738V440.61z M168.887,446.53c0,0.406-0.336,0.74-0.74,0.74
			h-16.282c-0.404,0-0.74-0.334-0.74-0.74v-1.48c0-0.402,0.336-0.738,0.74-0.738h16.282c0.404,0,0.74,0.336,0.74,0.738V446.53z
			 M168.887,452.452c0,0.404-0.336,0.74-0.74,0.74h-16.282c-0.404,0-0.74-0.336-0.74-0.74v-1.482c0-0.402,0.336-0.738,0.74-0.738
			h16.282c0.404,0,0.74,0.336,0.74,0.738V452.452z"/>
	</g>
</g>
</svg>
